name analog
datacolumns 19
datarows 32
range 0.47350000000000003 0.489
endheader
time	ground_force_vx	ground_force_vy	ground_force_vz	ground_force_px	ground_force_py	ground_force_pz	l_ground_force_vx	l_ground_force_vy	l_ground_force_vz	l_ground_force_px	l_ground_force_py	l_ground_force_pz	ground_torque_x	ground_torque_y	ground_torque_z	l_ground_torque_x	l_ground_torque_y	l_ground_torque_z
0.47350000000000003	-0.0	-0.0	-0.0	-22.87348937988281	173.88990783691406	-788.8056640625	-2.631723642349243	-169.6363983154297	-729.6107177734375	-0.0	-0.0	-0.0	-0.0	-0.0	-0.0	74265.8046875	32092.75390625	-13779.439453125
0.47400000000000003	-0.0	-0.0	-0.0	-18.441822052001957	172.02166748046875	-785.0357666015625	-3.9328012466430655	-166.89871215820312	-718.3221435546875	-0.0	-0.0	-0.0	-0.0	-0.0	-0.0	72873.9375	31668.8515625	-13591.6953125
0.47450000000000003	-0.0	-0.0	-0.0	-14.516793251037598	169.32327270507812	-782.052978515625	-5.854911804199219	-164.07264709472656	-702.7261962890625	-0.0	-0.0	-0.0	-0.0	-0.0	-0.0	71606.5	31093.42578125	-13661.6337890625
0.47500000000000003	-0.0	-0.0	-0.0	-10.616050720214844	166.13906860351562	-776.40185546875	-7.599716663360596	-161.65939331054688	-689.9254760742188	-0.0	-0.0	-0.0	-0.0	-0.0	-0.0	69879.2265625	30644.1484375	-13662.26171875
0.47550000000000003	-0.0	-0.0	-0.0	-7.963728427886963	163.11293029785156	-770.319580078125	-9.017766952514648	-159.12786865234375	-675.8502807617188	-0.0	-0.0	-0.0	-0.0	-0.0	-0.0	68431.140625	30330.69921875	-13494.685546875
0.47600000000000003	-0.0	-0.0	-0.0	-6.516880512237549	160.6784210205078	-761.232421875	-10.940695762634276	-156.3302764892578	-659.66259765625	-0.0	-0.0	-0.0	-0.0	-0.0	-0.0	66835.0	29890.6875	-13386.21875
0.47650000000000003	-0.0	-0.0	-0.0	-6.873943328857422	158.29559326171875	-751.3626708984375	-12.476781845092772	-153.79824829101562	-644.0697631835938	-0.0	-0.0	-0.0	-0.0	-0.0	-0.0	65164.78125	29140.78125	-13327.291015625
0.47700000000000004	-0.0	-0.0	-0.0	-8.174356460571289	155.80484008789062	-736.1965942382812	-14.342008590698242	-150.79800415039062	-631.5005493164062	-0.0	-0.0	-0.0	-0.0	-0.0	-0.0	63537.51953125	28725.216796875	-13139.654296875
0.47750000000000004	-0.0	-0.0	-0.0	-9.435969352722168	154.28982543945312	-721.919921875	-15.435676574707031	-147.5261688232422	-615.9092407226562	-0.0	-0.0	-0.0	-0.0	-0.0	-0.0	62158.2578125	28215.474609375	-12922.642578125
0.47800000000000004	-0.0	-0.0	-0.0	-11.864997863769531	151.44314575195312	-708.52099609375	-16.411495208740234	-144.19874572753906	-602.1856689453125	-0.0	-0.0	-0.0	-0.0	-0.0	-0.0	60799.1484375	27461.21875	-12883.1279296875
0.47850000000000004	-0.0	-0.0	-0.0	-13.091558456420898	149.8949737548828	-694.4622192382812	-17.450876235961914	-140.81546020507812	-589.1326904296875	-0.0	-0.0	-0.0	-0.0	-0.0	-0.0	59565.42578125	26782.263671875	-12605.744140625
0.47900000000000004	-0.0	-0.0	-0.0	-14.329363822937012	147.28260803222656	-682.388671875	-17.564735412597656	-137.99342346191406	-579.2506713867188	-0.0	-0.0	-0.0	-0.0	-0.0	-0.0	58702.14453125	25895.865234375	-12357.427734375
0.47950000000000004	-0.0	-0.0	-0.0	-15.159878730773926	144.68048095703125	-670.531982421875	-17.682252883911133	-134.66416931152344	-568.2010498046875	-0.0	-0.0	-0.0	-0.0	-0.0	-0.0	57848.58984375	25054.7109375	-12091.146484375
0.48	-0.0	-0.0	-0.0	-15.645651817321776	143.31556701660156	-660.4222412109375	-17.632184982299805	-131.84063720703125	-559.2376098632812	-0.0	-0.0	-0.0	-0.0	-0.0	-0.0	57247.3125	24242.560546875	-11635.0576171875
0.4805	-0.0	-0.0	-0.0	-15.947389602661133	141.416015625	-653.6016235351562	-16.766338348388672	-129.48228454589844	-552.030029296875	-0.0	-0.0	-0.0	-0.0	-0.0	-0.0	56713.875	23296.41015625	-11248.2333984375
0.481	-0.0	-0.0	-0.0	-15.405851364135742	139.64630126953125	-648.35498046875	-16.29706382751465	-127.74451446533205	-544.7891235351562	-0.0	-0.0	-0.0	-0.0	-0.0	-0.0	56325.16796875	22586.828125	-10724.05859375
0.4815	-0.0	-0.0	-0.0	-14.507119178771973	137.8498077392578	-642.81396484375	-15.198083877563477	-125.86148834228516	-538.3674926757812	-0.0	-0.0	-0.0	-0.0	-0.0	-0.0	56197.4921875	21520.173828125	-10157.181640625
0.482	-0.0	-0.0	-0.0	-13.642301559448242	136.4929656982422	-640.559814453125	-14.43470287322998	-124.6502456665039	-534.3140258789062	-0.0	-0.0	-0.0	-0.0	-0.0	-0.0	55637.09765625	20961.111328125	-9692.259765625
0.4825	-0.0	-0.0	-0.0	-11.823404312133787	135.03256225585938	-638.5774536132812	-12.894959449768066	-122.47042846679688	-529.5511474609375	-0.0	-0.0	-0.0	-0.0	-0.0	-0.0	55512.95703125	19995.80859375	-9079.4775390625
0.483	-0.0	-0.0	-0.0	-9.72394561767578	134.0666961669922	-638.2754516601562	-11.749159812927246	-121.20922088623048	-525.012451171875	-0.0	-0.0	-0.0	-0.0	-0.0	-0.0	55619.453125	18838.8359375	-8533.763671875
0.4835	-0.0	-0.0	-0.0	-6.973439693450928	132.8737335205078	-636.4785766601562	-10.13742446899414	-119.11393737792967	-521.4252319335938	-0.0	-0.0	-0.0	-0.0	-0.0	-0.0	55326.8671875	17800.880859375	-8107.3818359375
0.484	-0.0	-0.0	-0.0	-4.165728569030762	131.9904022216797	-636.154052734375	-9.850981712341309	-117.5521011352539	-515.4588012695312	-0.0	-0.0	-0.0	-0.0	-0.0	-0.0	55611.41796875	17193.896484375	-7591.76171875
0.4845	-0.0	-0.0	-0.0	-2.0677123069763184	131.01376342773438	-635.540771484375	-9.29510498046875	-115.97066497802734	-511.89013671875	-0.0	-0.0	-0.0	-0.0	-0.0	-0.0	55518.34375	16329.919921875	-7237.8994140625
0.485	-0.0	-0.0	-0.0	-1.25705885887146	130.78131103515625	-632.2991333007812	-9.085536003112791	-113.81869506835938	-507.0963134765625	-0.0	-0.0	-0.0	-0.0	-0.0	-0.0	55197.83984375	15528.77734375	-6876.87841796875
0.4855	-0.0	-0.0	-0.0	-0.4813337624073028	129.7821807861328	-630.1058959960938	-8.866394996643066	-112.14065551757812	-503.6053161621094	-0.0	-0.0	-0.0	-0.0	-0.0	-0.0	55213.7109375	14685.880859375	-6531.21435546875
0.486	-0.0	-0.0	-0.0	-0.2420202940702438	129.3013458251953	-629.1537475585938	-8.609848976135254	-110.6392593383789	-497.799560546875	-0.0	-0.0	-0.0	-0.0	-0.0	-0.0	55036.10546875	14018.892578125	-6201.06689453125
0.4865	-0.0	-0.0	-0.0	0.0449534207582473	128.3209686279297	-627.24755859375	-8.539036750793457	-109.10504150390624	-494.3089599609375	-0.0	-0.0	-0.0	-0.0	-0.0	-0.0	55175.0546875	13327.18359375	-5997.955078125
0.487	-0.0	-0.0	-0.0	0.5531495809555054	127.22471618652344	-624.0689697265625	-8.344094276428223	-108.0727996826172	-490.4485778808594	-0.0	-0.0	-0.0	-0.0	-0.0	-0.0	54930.16796875	12519.2421875	-5617.75830078125
0.4875	-0.0	-0.0	-0.0	0.9546148777008056	126.22622680664062	-622.7979736328125	-7.684601783752441	-107.05136108398438	-486.4114990234375	-0.0	-0.0	-0.0	-0.0	-0.0	-0.0	54726.109375	11522.1669921875	-5147.82421875
0.488	-0.0	-0.0	-0.0	1.810842037200928	125.78160858154295	-620.5740966796875	-6.947120189666748	-106.0743408203125	-481.6756286621094	-0.0	-0.0	-0.0	-0.0	-0.0	-0.0	54701.59375	10750.900390625	-4739.21044921875
0.4885	-0.0	-0.0	-0.0	3.19250750541687	124.88870239257812	-619.3724975585938	-6.387176513671875	-105.10867309570312	-479.0592346191406	-0.0	-0.0	-0.0	-0.0	-0.0	-0.0	54852.890625	9777.9833984375	-4300.89111328125
0.489	-0.0	-0.0	-0.0	4.559450149536133	124.55135345458984	-617.0822143554688	-5.66534948348999	-104.46317291259766	-475.4838562011719	-0.0	-0.0	-0.0	-0.0	-0.0	-0.0	54889.74609375	8966.568359375	-3937.0048828125
